<svg xmlns="http://www.w3.org/2000/svg" xmlns:xlink="http://www.w3.org/1999/xlink" width="1920" zoomAndPan="magnify" viewBox="0 0 1440 809.999993" height="1080" preserveAspectRatio="xMidYMid meet" version="1.0"><defs><clipPath id="id1"><path d="M 396 45.441406 L 1079.25 45.441406 L 1079.25 728.691406 L 396 728.691406 Z M 396 45.441406 " clip-rule="nonzero"/></clipPath></defs><path fill="#000000" d="M 770.433594 284.605469 L 770.433594 340.152344 L 840.371094 340.152344 L 830.585938 416.132812 L 770.433594 416.132812 L 770.433594 590.257812 L 694.167969 590.257812 L 694.167969 416.132812 L 628.835938 416.132812 L 628.835938 340.152344 L 694.167969 340.152344 L 694.167969 284.605469 C 694.167969 224.457031 742.804688 183.875 802.957031 183.875 C 829.433594 183.875 846.128906 187.90625 846.128906 187.90625 L 846.128906 252.085938 L 802.957031 252.085938 C 785.113281 252.085938 770.433594 266.761719 770.433594 284.605469 Z M 770.433594 284.605469 " fill-opacity="1" fill-rule="nonzero"/><g clip-path="url(#id1)"><path fill="#000000" d="M 737.625 728.691406 C 549.398438 728.691406 396 575.578125 396 387.066406 C 396 198.554688 549.398438 45.441406 737.625 45.441406 C 926.136719 45.441406 1079.25 198.839844 1079.25 387.066406 C 1079.25 575.289062 926.136719 728.691406 737.625 728.691406 Z M 737.625 64.148438 C 559.472656 64.148438 414.707031 208.914062 414.707031 387.066406 C 414.707031 565.21875 559.472656 709.984375 737.625 709.984375 C 915.777344 709.984375 1060.542969 565.21875 1060.542969 387.066406 C 1060.542969 208.914062 915.777344 64.148438 737.625 64.148438 Z M 737.625 64.148438 " fill-opacity="1" fill-rule="nonzero"/></g></svg>