<svg xmlns="http://www.w3.org/2000/svg" xmlns:xlink="http://www.w3.org/1999/xlink" width="1920" zoomAndPan="magnify" viewBox="0 0 1440 809.999993" height="1080" preserveAspectRatio="xMidYMid meet" version="1.0"><defs><clipPath id="id1"><path d="M 378.21875 63.21875 L 1061.46875 63.21875 L 1061.46875 746.46875 L 378.21875 746.46875 Z M 378.21875 63.21875 " clip-rule="nonzero"/></clipPath></defs><path fill="#000000" d="M 809.066406 208.5625 L 630.914062 208.5625 C 571.914062 208.5625 523.851562 256.625 523.851562 315.625 L 523.851562 493.777344 C 523.851562 552.777344 571.914062 600.839844 630.914062 600.839844 L 809.066406 600.839844 C 868.066406 600.839844 916.128906 552.777344 916.128906 493.777344 L 916.128906 315.914062 C 916.128906 256.625 868.066406 208.5625 809.066406 208.5625 Z M 882.457031 494.066406 C 882.457031 534.644531 849.644531 567.457031 809.066406 567.457031 L 630.914062 567.457031 C 590.332031 567.457031 557.234375 534.644531 557.234375 494.066406 L 557.234375 315.914062 C 557.234375 275.332031 590.332031 242.234375 630.914062 242.234375 L 809.066406 242.234375 C 849.644531 242.234375 882.457031 275.046875 882.457031 315.914062 Z M 882.457031 494.066406 " fill-opacity="1" fill-rule="nonzero"/><path fill="#000000" d="M 851.085938 297.496094 C 851.085938 310.734375 840.4375 321.667969 826.910156 321.667969 C 813.671875 321.667969 802.734375 311.019531 802.734375 297.496094 C 802.734375 284.253906 813.382812 273.320312 826.910156 273.320312 C 840.4375 273.605469 851.085938 284.253906 851.085938 297.496094 Z M 851.085938 297.496094 " fill-opacity="1" fill-rule="nonzero"/><path fill="#000000" d="M 719.84375 304.976562 C 664.875 304.976562 619.976562 349.875 619.976562 404.84375 C 619.976562 459.816406 664.875 504.714844 719.84375 504.714844 C 774.816406 504.714844 819.714844 459.816406 819.714844 404.84375 C 819.714844 349.875 775.105469 304.976562 719.84375 304.976562 Z M 719.84375 471.039062 C 683.292969 471.039062 653.648438 441.398438 653.648438 404.84375 C 653.648438 368.292969 683.292969 338.648438 719.84375 338.648438 C 756.398438 338.648438 786.039062 368.292969 786.039062 404.84375 C 786.039062 441.398438 756.398438 471.039062 719.84375 471.039062 Z M 719.84375 471.039062 " fill-opacity="1" fill-rule="nonzero"/><g clip-path="url(#id1)"><path fill="#000000" d="M 719.84375 746.46875 C 531.621094 746.46875 378.21875 593.359375 378.21875 404.84375 C 378.21875 216.621094 531.621094 63.21875 719.84375 63.21875 C 908.359375 63.21875 1061.46875 216.621094 1061.46875 404.84375 C 1061.46875 593.359375 908.359375 746.46875 719.84375 746.46875 Z M 719.84375 81.929688 C 541.695312 81.929688 396.929688 226.695312 396.929688 404.84375 C 396.929688 582.996094 541.695312 727.761719 719.84375 727.761719 C 897.996094 727.761719 1042.761719 582.996094 1042.761719 404.84375 C 1042.761719 226.695312 897.996094 81.929688 719.84375 81.929688 Z M 719.84375 81.929688 " fill-opacity="1" fill-rule="nonzero"/></g></svg>