<svg xmlns="http://www.w3.org/2000/svg" xmlns:xlink="http://www.w3.org/1999/xlink" width="1920" zoomAndPan="magnify" viewBox="0 0 1440 809.999993" height="1080" preserveAspectRatio="xMidYMid meet" version="1.0"><defs><clipPath id="id1"><path d="M 382.28125 53.558594 L 1058.03125 53.558594 L 1058.03125 729.308594 L 382.28125 729.308594 Z M 382.28125 53.558594 " clip-rule="nonzero"/></clipPath></defs><path fill="#000000" d="M 868.738281 317.140625 C 868.738281 317.140625 873.863281 425.023438 791.601562 491.628906 C 668.917969 591.253906 536.558594 510.417969 536.558594 510.417969 C 536.558594 510.417969 568.722656 510.984375 597.1875 503.300781 C 625.652344 495.613281 645.863281 477.398438 645.863281 477.398438 C 645.863281 477.398438 614.835938 470.851562 598.894531 459.179688 C 582.671875 447.507812 576.691406 425.023438 576.691406 425.023438 C 576.691406 425.023438 587.226562 425.875 594.054688 425.875 C 600.886719 425.589844 609.140625 422.460938 609.140625 422.460938 C 609.140625 422.460938 586.941406 419.898438 566.160156 396.558594 C 549.9375 378.339844 551.074219 347.882812 551.074219 347.882812 C 551.074219 347.882812 560.753906 353.578125 566.160156 355 C 571.285156 356.421875 581.246094 356.421875 581.246094 356.421875 C 581.246094 356.421875 561.890625 344.753906 553.066406 315.148438 C 544.527344 285.261719 561.039062 255.089844 561.039062 255.089844 C 561.039062 255.089844 589.5 289.816406 632.484375 312.300781 C 675.464844 334.789062 715.886719 333.9375 715.886719 333.9375 C 715.886719 333.9375 709.90625 316.003906 720.15625 289.816406 C 730.402344 263.34375 753.742188 244.558594 789.039062 241.710938 C 824.335938 238.863281 846.820312 265.621094 846.820312 265.621094 C 846.820312 265.621094 857.636719 263.628906 870.164062 259.074219 C 882.6875 254.519531 894.925781 248.828125 894.925781 248.828125 C 894.925781 248.828125 890.65625 262.203125 882.117188 272.738281 C 873.578125 283.269531 863.902344 289.53125 863.902344 289.53125 C 863.902344 289.53125 875.003906 288.675781 886.101562 285.546875 C 897.203125 282.414062 903.464844 279.285156 903.464844 279.285156 C 891.226562 300.917969 868.738281 317.140625 868.738281 317.140625 Z M 868.738281 317.140625 " fill-opacity="1" fill-rule="nonzero"/><g clip-path="url(#id1)"><path fill="#000000" d="M 720.15625 729.308594 C 533.996094 729.308594 382.28125 577.878906 382.28125 391.433594 C 382.28125 204.992188 533.996094 53.558594 720.15625 53.558594 C 906.3125 53.558594 1058.03125 205.277344 1058.03125 391.433594 C 1058.03125 577.59375 906.597656 729.308594 720.15625 729.308594 Z M 720.15625 72.0625 C 543.957031 72.0625 400.78125 215.238281 400.78125 391.433594 C 400.78125 567.628906 543.957031 710.808594 720.15625 710.808594 C 896.351562 710.808594 1039.527344 567.628906 1039.527344 391.433594 C 1039.527344 215.238281 896.351562 72.0625 720.15625 72.0625 Z M 720.15625 72.0625 " fill-opacity="1" fill-rule="nonzero"/></g></svg>